<svg xmlns="http://www.w3.org/2000/svg" width="32" height="32" viewBox="0 0 32 32"><path fill="#fff" style="line-height:normal;-inkscape-font-specification:Sans;text-indent:0;text-align:start;text-decoration-line:none;text-transform:none;block-progression:tb;marker:none" d="m -733.92681,1100.145 c -0.88556,-0.3781 -1.85246,-0.6619 -2.86063,-0.8577 -4.03273,-0.7832 -8.73532,-0.287 -11.68538,0.6147 -0.35817,0.1041 -0.45458,0.6699 -0.15121,0.8869 0.53061,0.356 1.24506,0.5829 2.01519,0.9471 l -1,1.732 c -0.18323,0.291 0.0451,0.7412 0.38811,0.7653 l 2.02282,0.1214 -0.8125,1.4073 c -0.0114,0.018 -0.0219,0.036 -0.0315,0.054 l -0.0155,0.027 c -0.0181,0.025 -0.0341,0.053 -0.047,0.081 -0.003,0.023 -0.004,0.046 -0.004,0.069 -0.005,0.01 -0.0108,0.018 -0.0155,0.027 -0.003,0.023 -0.004,0.046 -0.004,0.069 0.005,0.028 0.0131,0.057 0.0231,0.085 -0.002,0.038 5.9e-4,0.075 0.007,0.1127 0.005,0.029 0.0126,0.058 0.0226,0.086 0.009,0.01 0.0179,0.011 0.027,0.016 0.0114,0.02 0.0245,0.04 0.0386,0.058 0.009,0.01 0.0179,0.011 0.027,0.016 0.009,0.01 0.0179,0.011 0.027,0.016 0.0269,0.016 0.0542,0.031 0.0811,0.047 0.018,0.01 0.0361,0.021 0.0541,0.031 0.018,0.01 0.0361,0.021 0.0541,0.031 0.0329,0.01 0.0641,0.016 0.0967,0.02 l 0.0696,0 c 0.0374,0 0.0752,-5e-4 0.11214,-0.01 l 1.86767,0.1401 -0.85935,1.4885 c -0.1779,0.3021 0.0801,0.7539 0.43072,0.7539 0.86382,0 1.16785,0.019 1.48046,0.061 0.1193,0.016 0.37236,0.03 0.5153,0.045 l -0.875,1.5155 c -0.13088,0.2268 -0.0437,0.5521 0.18301,0.683 l 1.48848,0.8594 c -1.17894,0.9074 -2.77088,1.5589 -4.56682,1.91 -2.07445,0.4055 -4.27823,0.5098 -5.94481,0.6092 -0.42522,0.042 -0.56128,0.7435 -0.18247,0.941 1.55568,0.8185 4.56312,2.8479 7.82523,4.4463 3.26236,1.598 6.79214,2.8569 9.62322,2.0196 2.74293,-0.8111 4.18749,-2.7936 5.3411,-4.3135 0.57679,-0.7599 1.07531,-1.4004 1.60491,-1.7798 0.52956,-0.3794 1.05406,-0.5246 1.85427,-0.3367 0.003,8e-4 0.1847,0.069 0.39438,0.1919 0.21069,0.1217 0.47083,0.2845 0.74227,0.4644 0.54188,0.3613 1.12036,0.7911 1.58837,1.0613 0.34248,0.2428 0.8986,-0.1732 0.76225,-0.5702 -0.15113,-0.5641 -0.0783,-1.0152 0.0879,-1.4648 0.15944,-0.4314 0.39112,-0.8547 0.50224,-1.3699 l 0.027,0.016 c 0.007,-0.025 -0.003,-0.046 0.004,-0.069 0.32855,-1.1439 0.22727,-2.1938 -0.23848,-3.0245 -0.47566,-0.8482 -1.27773,-1.4647 -2.21276,-1.8548 -1.64893,-0.6881 -3.71537,-0.5964 -5.52406,0.1304 l 0.10382,-2.4298 c 0.0839,-2.206 -0.74245,-3.9059 -2.10136,-5.1104 -0.6794,-0.6023 -1.47617,-1.0937 -2.36163,-1.472 z" transform="rotate(-30 -2403.87 -841.402)"/></svg>